<mxfile host="Electron" agent="Mozilla/5.0 (Macintosh; Intel Mac OS X 10_15_7) AppleWebKit/537.36 (KHTML, like Gecko) draw.io/26.2.2 Chrome/134.0.6998.178 Electron/35.1.2 Safari/537.36" version="26.2.2">
  <diagram name="Страница — 1" id="OhyMpIxeDv_2BK04oLk6">
    <mxGraphModel dx="2887" dy="3858" grid="1" gridSize="10" guides="1" tooltips="1" connect="1" arrows="1" fold="1" page="1" pageScale="1" pageWidth="827" pageHeight="1169" math="0" shadow="0">
      <root>
        <mxCell id="0" />
        <mxCell id="1" parent="0" />
        <mxCell id="HGm-td5DDQJM6bDTjI0I-1" value="WebSPA" style="swimlane;whiteSpace=wrap;html=1;" vertex="1" parent="1">
          <mxGeometry x="10" y="-1660" width="400" height="900" as="geometry" />
        </mxCell>
        <mxCell id="HGm-td5DDQJM6bDTjI0I-8" value="" style="swimlane;startSize=0;" vertex="1" parent="HGm-td5DDQJM6bDTjI0I-1">
          <mxGeometry x="20" y="40" width="360" height="830" as="geometry" />
        </mxCell>
        <mxCell id="HGm-td5DDQJM6bDTjI0I-10" value="ROBOTS" style="whiteSpace=wrap;html=1;" vertex="1" parent="HGm-td5DDQJM6bDTjI0I-8">
          <mxGeometry x="20" y="20" width="320" height="140" as="geometry" />
        </mxCell>
        <mxCell id="HGm-td5DDQJM6bDTjI0I-11" value="ROOMS" style="whiteSpace=wrap;html=1;" vertex="1" parent="HGm-td5DDQJM6bDTjI0I-8">
          <mxGeometry x="20" y="340" width="320" height="140" as="geometry" />
        </mxCell>
        <mxCell id="HGm-td5DDQJM6bDTjI0I-12" value="SERVICES" style="whiteSpace=wrap;html=1;" vertex="1" parent="HGm-td5DDQJM6bDTjI0I-8">
          <mxGeometry x="20" y="500" width="320" height="140" as="geometry" />
        </mxCell>
        <mxCell id="HGm-td5DDQJM6bDTjI0I-13" value="TASKMANAGER" style="whiteSpace=wrap;html=1;" vertex="1" parent="HGm-td5DDQJM6bDTjI0I-8">
          <mxGeometry x="20" y="180" width="320" height="140" as="geometry" />
        </mxCell>
        <mxCell id="HGm-td5DDQJM6bDTjI0I-48" value="HISTORY" style="whiteSpace=wrap;html=1;" vertex="1" parent="HGm-td5DDQJM6bDTjI0I-8">
          <mxGeometry x="20" y="660" width="320" height="140" as="geometry" />
        </mxCell>
        <mxCell id="HGm-td5DDQJM6bDTjI0I-49" value="" style="swimlane;startSize=0;" vertex="1" parent="1">
          <mxGeometry x="-420" y="-1620" width="360" height="830" as="geometry" />
        </mxCell>
        <mxCell id="HGm-td5DDQJM6bDTjI0I-16" value="Robot" style="swimlane;fontStyle=0;childLayout=stackLayout;horizontal=1;startSize=30;horizontalStack=0;resizeParent=1;resizeParentMax=0;resizeLast=0;collapsible=1;marginBottom=0;whiteSpace=wrap;html=1;" vertex="1" parent="HGm-td5DDQJM6bDTjI0I-49">
          <mxGeometry x="20" y="50" width="320" height="90" as="geometry" />
        </mxCell>
        <mxCell id="HGm-td5DDQJM6bDTjI0I-17" value="Model" style="text;strokeColor=none;fillColor=none;align=left;verticalAlign=middle;spacingLeft=4;spacingRight=4;overflow=hidden;points=[[0,0.5],[1,0.5]];portConstraint=eastwest;rotatable=0;whiteSpace=wrap;html=1;" vertex="1" parent="HGm-td5DDQJM6bDTjI0I-16">
          <mxGeometry y="30" width="320" height="30" as="geometry" />
        </mxCell>
        <mxCell id="HGm-td5DDQJM6bDTjI0I-18" value="AtAdded" style="text;strokeColor=none;fillColor=none;align=left;verticalAlign=middle;spacingLeft=4;spacingRight=4;overflow=hidden;points=[[0,0.5],[1,0.5]];portConstraint=eastwest;rotatable=0;whiteSpace=wrap;html=1;" vertex="1" parent="HGm-td5DDQJM6bDTjI0I-16">
          <mxGeometry y="60" width="320" height="30" as="geometry" />
        </mxCell>
        <mxCell id="HGm-td5DDQJM6bDTjI0I-15" value="Robots" style="text;html=1;align=center;verticalAlign=middle;whiteSpace=wrap;rounded=0;fontSize=20;fontStyle=1" vertex="1" parent="HGm-td5DDQJM6bDTjI0I-49">
          <mxGeometry x="140" y="10" width="80" height="30" as="geometry" />
        </mxCell>
        <mxCell id="HGm-td5DDQJM6bDTjI0I-19" value="Add New Robot" style="rounded=1;whiteSpace=wrap;html=1;" vertex="1" parent="HGm-td5DDQJM6bDTjI0I-49">
          <mxGeometry x="20" y="160" width="320" height="70" as="geometry" />
        </mxCell>
        <mxCell id="HGm-td5DDQJM6bDTjI0I-55" value="" style="swimlane;startSize=0;" vertex="1" parent="1">
          <mxGeometry x="-420" y="-740" width="360" height="830" as="geometry" />
        </mxCell>
        <mxCell id="HGm-td5DDQJM6bDTjI0I-27" value="Rooms" style="text;html=1;align=center;verticalAlign=middle;whiteSpace=wrap;rounded=0;fontSize=20;fontStyle=1" vertex="1" parent="HGm-td5DDQJM6bDTjI0I-55">
          <mxGeometry x="140" y="20" width="80" height="30" as="geometry" />
        </mxCell>
        <mxCell id="HGm-td5DDQJM6bDTjI0I-28" value="Room 1" style="swimlane;fontStyle=0;childLayout=stackLayout;horizontal=1;startSize=30;horizontalStack=0;resizeParent=1;resizeParentMax=0;resizeLast=0;collapsible=1;marginBottom=0;whiteSpace=wrap;html=1;" vertex="1" parent="HGm-td5DDQJM6bDTjI0I-55">
          <mxGeometry x="20" y="70" width="320" height="90" as="geometry" />
        </mxCell>
        <mxCell id="HGm-td5DDQJM6bDTjI0I-29" value="Position" style="text;strokeColor=none;fillColor=none;align=left;verticalAlign=middle;spacingLeft=4;spacingRight=4;overflow=hidden;points=[[0,0.5],[1,0.5]];portConstraint=eastwest;rotatable=0;whiteSpace=wrap;html=1;" vertex="1" parent="HGm-td5DDQJM6bDTjI0I-28">
          <mxGeometry y="30" width="320" height="30" as="geometry" />
        </mxCell>
        <mxCell id="HGm-td5DDQJM6bDTjI0I-30" value="Operation" style="text;strokeColor=none;fillColor=none;align=left;verticalAlign=middle;spacingLeft=4;spacingRight=4;overflow=hidden;points=[[0,0.5],[1,0.5]];portConstraint=eastwest;rotatable=0;whiteSpace=wrap;html=1;" vertex="1" parent="HGm-td5DDQJM6bDTjI0I-28">
          <mxGeometry y="60" width="320" height="30" as="geometry" />
        </mxCell>
        <mxCell id="HGm-td5DDQJM6bDTjI0I-31" value="Add New Room" style="rounded=1;whiteSpace=wrap;html=1;" vertex="1" parent="HGm-td5DDQJM6bDTjI0I-55">
          <mxGeometry x="20" y="186" width="320" height="70" as="geometry" />
        </mxCell>
        <mxCell id="HGm-td5DDQJM6bDTjI0I-62" value="" style="swimlane;startSize=0;" vertex="1" parent="1">
          <mxGeometry x="30" y="-740" width="360" height="830" as="geometry" />
        </mxCell>
        <mxCell id="HGm-td5DDQJM6bDTjI0I-21" value="History" style="text;html=1;align=center;verticalAlign=middle;whiteSpace=wrap;rounded=0;fontSize=20;fontStyle=1" vertex="1" parent="HGm-td5DDQJM6bDTjI0I-62">
          <mxGeometry x="140" y="10" width="80" height="30" as="geometry" />
        </mxCell>
        <mxCell id="HGm-td5DDQJM6bDTjI0I-22" value="Today" style="swimlane;fontStyle=0;childLayout=stackLayout;horizontal=1;startSize=30;horizontalStack=0;resizeParent=1;resizeParentMax=0;resizeLast=0;collapsible=1;marginBottom=0;whiteSpace=wrap;html=1;" vertex="1" parent="HGm-td5DDQJM6bDTjI0I-62">
          <mxGeometry x="20" y="55" width="320" height="120" as="geometry" />
        </mxCell>
        <mxCell id="HGm-td5DDQJM6bDTjI0I-23" value="2025-04-09 10:00 Robot 1 is charging" style="text;strokeColor=none;fillColor=none;align=left;verticalAlign=middle;spacingLeft=4;spacingRight=4;overflow=hidden;points=[[0,0.5],[1,0.5]];portConstraint=eastwest;rotatable=0;whiteSpace=wrap;html=1;" vertex="1" parent="HGm-td5DDQJM6bDTjI0I-22">
          <mxGeometry y="30" width="320" height="30" as="geometry" />
        </mxCell>
        <mxCell id="HGm-td5DDQJM6bDTjI0I-24" value="2025-04-09 09:55 Robot 1 is doing some thing" style="text;strokeColor=none;fillColor=none;align=left;verticalAlign=middle;spacingLeft=4;spacingRight=4;overflow=hidden;points=[[0,0.5],[1,0.5]];portConstraint=eastwest;rotatable=0;whiteSpace=wrap;html=1;" vertex="1" parent="HGm-td5DDQJM6bDTjI0I-22">
          <mxGeometry y="60" width="320" height="30" as="geometry" />
        </mxCell>
        <mxCell id="HGm-td5DDQJM6bDTjI0I-25" value="2025-04-09 09:40 Robot 1 is starting operation 1" style="text;strokeColor=none;fillColor=none;align=left;verticalAlign=middle;spacingLeft=4;spacingRight=4;overflow=hidden;points=[[0,0.5],[1,0.5]];portConstraint=eastwest;rotatable=0;whiteSpace=wrap;html=1;" vertex="1" parent="HGm-td5DDQJM6bDTjI0I-22">
          <mxGeometry y="90" width="320" height="30" as="geometry" />
        </mxCell>
        <mxCell id="HGm-td5DDQJM6bDTjI0I-68" value="" style="swimlane;startSize=0;" vertex="1" parent="1">
          <mxGeometry x="460" y="-1620" width="360" height="830" as="geometry" />
        </mxCell>
        <mxCell id="HGm-td5DDQJM6bDTjI0I-33" value="Task Manager" style="text;html=1;align=center;verticalAlign=middle;whiteSpace=wrap;rounded=0;fontSize=20;fontStyle=1" vertex="1" parent="HGm-td5DDQJM6bDTjI0I-68">
          <mxGeometry x="100" y="10" width="140" height="30" as="geometry" />
        </mxCell>
        <mxCell id="HGm-td5DDQJM6bDTjI0I-34" value="Task 1" style="swimlane;fontStyle=0;childLayout=stackLayout;horizontal=1;startSize=30;horizontalStack=0;resizeParent=1;resizeParentMax=0;resizeLast=0;collapsible=1;marginBottom=0;whiteSpace=wrap;html=1;" vertex="1" parent="HGm-td5DDQJM6bDTjI0I-68">
          <mxGeometry x="30" y="60" width="300" height="120" as="geometry" />
        </mxCell>
        <mxCell id="HGm-td5DDQJM6bDTjI0I-35" value="Robot: Robot 1" style="text;strokeColor=none;fillColor=none;align=left;verticalAlign=middle;spacingLeft=4;spacingRight=4;overflow=hidden;points=[[0,0.5],[1,0.5]];portConstraint=eastwest;rotatable=0;whiteSpace=wrap;html=1;" vertex="1" parent="HGm-td5DDQJM6bDTjI0I-34">
          <mxGeometry y="30" width="300" height="30" as="geometry" />
        </mxCell>
        <mxCell id="HGm-td5DDQJM6bDTjI0I-36" value="Room: Room 1" style="text;strokeColor=none;fillColor=none;align=left;verticalAlign=middle;spacingLeft=4;spacingRight=4;overflow=hidden;points=[[0,0.5],[1,0.5]];portConstraint=eastwest;rotatable=0;whiteSpace=wrap;html=1;" vertex="1" parent="HGm-td5DDQJM6bDTjI0I-34">
          <mxGeometry y="60" width="300" height="30" as="geometry" />
        </mxCell>
        <mxCell id="HGm-td5DDQJM6bDTjI0I-37" value="Operation: some doing" style="text;strokeColor=none;fillColor=none;align=left;verticalAlign=middle;spacingLeft=4;spacingRight=4;overflow=hidden;points=[[0,0.5],[1,0.5]];portConstraint=eastwest;rotatable=0;whiteSpace=wrap;html=1;" vertex="1" parent="HGm-td5DDQJM6bDTjI0I-34">
          <mxGeometry y="90" width="300" height="30" as="geometry" />
        </mxCell>
        <mxCell id="HGm-td5DDQJM6bDTjI0I-38" value="Add New Task" style="rounded=1;whiteSpace=wrap;html=1;" vertex="1" parent="HGm-td5DDQJM6bDTjI0I-68">
          <mxGeometry x="30" y="200" width="300" height="70" as="geometry" />
        </mxCell>
        <mxCell id="HGm-td5DDQJM6bDTjI0I-74" value="" style="swimlane;startSize=0;" vertex="1" parent="1">
          <mxGeometry x="460" y="-740" width="360" height="830" as="geometry" />
        </mxCell>
        <mxCell id="HGm-td5DDQJM6bDTjI0I-40" value="Services" style="text;html=1;align=center;verticalAlign=middle;whiteSpace=wrap;rounded=0;fontSize=20;fontStyle=1" vertex="1" parent="HGm-td5DDQJM6bDTjI0I-74">
          <mxGeometry x="125" y="20" width="90" height="30" as="geometry" />
        </mxCell>
        <mxCell id="HGm-td5DDQJM6bDTjI0I-41" value="Version OS: ######" style="text;html=1;align=center;verticalAlign=middle;whiteSpace=wrap;rounded=0;" vertex="1" parent="HGm-td5DDQJM6bDTjI0I-74">
          <mxGeometry x="105" y="60" width="130" height="30" as="geometry" />
        </mxCell>
        <mxCell id="HGm-td5DDQJM6bDTjI0I-42" value="Check Update OS" style="rounded=1;whiteSpace=wrap;html=1;" vertex="1" parent="HGm-td5DDQJM6bDTjI0I-74">
          <mxGeometry x="57.5" y="100" width="110" height="30" as="geometry" />
        </mxCell>
        <mxCell id="HGm-td5DDQJM6bDTjI0I-43" value="Update OS" style="rounded=1;whiteSpace=wrap;html=1;" vertex="1" parent="HGm-td5DDQJM6bDTjI0I-74">
          <mxGeometry x="192.5" y="100" width="110" height="30" as="geometry" />
        </mxCell>
        <mxCell id="HGm-td5DDQJM6bDTjI0I-44" value="Robot 1" style="swimlane;fontStyle=0;childLayout=stackLayout;horizontal=1;startSize=30;horizontalStack=0;resizeParent=1;resizeParentMax=0;resizeLast=0;collapsible=1;marginBottom=0;whiteSpace=wrap;html=1;" vertex="1" parent="HGm-td5DDQJM6bDTjI0I-74">
          <mxGeometry x="20" y="145" width="320" height="120" as="geometry" />
        </mxCell>
        <mxCell id="HGm-td5DDQJM6bDTjI0I-45" value="is Status: working" style="text;strokeColor=none;fillColor=none;align=left;verticalAlign=middle;spacingLeft=4;spacingRight=4;overflow=hidden;points=[[0,0.5],[1,0.5]];portConstraint=eastwest;rotatable=0;whiteSpace=wrap;html=1;" vertex="1" parent="HGm-td5DDQJM6bDTjI0I-44">
          <mxGeometry y="30" width="320" height="30" as="geometry" />
        </mxCell>
        <mxCell id="HGm-td5DDQJM6bDTjI0I-46" value="is Full: false" style="text;strokeColor=none;fillColor=none;align=left;verticalAlign=middle;spacingLeft=4;spacingRight=4;overflow=hidden;points=[[0,0.5],[1,0.5]];portConstraint=eastwest;rotatable=0;whiteSpace=wrap;html=1;" vertex="1" parent="HGm-td5DDQJM6bDTjI0I-44">
          <mxGeometry y="60" width="320" height="30" as="geometry" />
        </mxCell>
        <mxCell id="HGm-td5DDQJM6bDTjI0I-47" value="Battery Status: 75%" style="text;strokeColor=none;fillColor=none;align=left;verticalAlign=middle;spacingLeft=4;spacingRight=4;overflow=hidden;points=[[0,0.5],[1,0.5]];portConstraint=eastwest;rotatable=0;whiteSpace=wrap;html=1;" vertex="1" parent="HGm-td5DDQJM6bDTjI0I-44">
          <mxGeometry y="90" width="320" height="30" as="geometry" />
        </mxCell>
      </root>
    </mxGraphModel>
  </diagram>
</mxfile>
